<svg width="7616" height="7616" viewBox="0 0 7616 7616" fill="none" xmlns="http://www.w3.org/2000/svg">
<path d="M7616 3808C7616 5911.1 5911.1 7616 3808 7616C1704.9 7616 0 5911.1 0 3808C0 1704.9 1704.9 0 3808 0C5911.1 0 7616 1704.9 7616 3808Z" fill="black"/>
<path d="M4030.83 5310.33C3720.87 5238.74 3399.85 5228.91 3086.09 5281.38C2772.34 5333.86 2471.99 5447.62 2202.2 5616.17L2717.22 6440.55C2878.76 6339.64 3058.59 6271.53 3246.44 6240.11C3434.3 6208.69 3626.5 6214.58 3812.08 6257.44L4030.83 5310.33Z" fill="white"/>
<path d="M5028.37 4712.95C4758.58 4881.5 4524.63 5101.54 4339.88 5360.51C4155.12 5619.48 4023.18 5912.3 3951.6 6222.25L4898.7 6441C4941.56 6255.42 5020.56 6080.1 5131.18 5925.05C5241.8 5770 5381.87 5638.25 5543.4 5537.33L5028.37 4712.95Z" fill="white"/>
<path d="M5311.33 3585.17C5239.74 3895.13 5229.91 4216.15 5282.38 4529.91C5334.86 4843.66 5448.62 5144.01 5617.17 5413.8L6441.56 4898.78C6340.64 4737.24 6272.53 4557.41 6241.11 4369.56C6209.69 4181.7 6215.58 3989.5 6258.44 3803.92L5311.33 3585.17Z" fill="white"/>
<path d="M4713.95 2587.63C4882.5 2857.42 5102.54 3091.37 5361.51 3276.12C5620.48 3460.88 5913.3 3592.82 6223.25 3664.4L6442 2717.3C6256.42 2674.43 6081.1 2595.44 5926.05 2484.82C5771 2374.2 5639.25 2234.13 5538.33 2072.6L4713.95 2587.63Z" fill="white"/>
<path d="M3586.17 2304.67C3896.13 2376.26 4217.15 2386.09 4530.9 2333.62C4844.66 2281.14 5145.01 2167.38 5414.8 1998.83L4899.78 1174.44C4738.24 1275.36 4558.41 1343.47 4370.56 1374.89C4182.7 1406.31 3990.5 1400.42 3804.92 1357.56L3586.17 2304.67Z" fill="white"/>
<path d="M2588.63 2902.05C2858.42 2733.5 3092.37 2513.46 3277.12 2254.49C3461.88 1995.52 3593.82 1702.7 3665.4 1392.75L2718.3 1174C2675.43 1359.58 2596.44 1534.9 2485.82 1689.95C2375.2 1845 2235.13 1976.75 2073.6 2077.67L2588.63 2902.05Z" fill="white"/>
<path d="M2305.67 4029.83C2377.26 3719.87 2387.09 3398.85 2334.62 3085.1C2282.14 2771.34 2168.38 2470.99 1999.83 2201.2L1175.44 2716.23C1276.36 2877.76 1344.47 3057.59 1375.89 3245.44C1407.31 3433.3 1401.42 3625.5 1358.56 3811.08L2305.67 4029.83Z" fill="white"/>
<path d="M2903.05 5027.37C2734.5 4757.58 2514.46 4523.63 2255.49 4338.88C1996.52 4154.12 1703.7 4022.18 1393.75 3950.6L1175 4897.7C1360.58 4940.56 1535.9 5019.56 1690.95 5130.18C1846 5240.8 1977.75 5380.87 2078.67 5542.4L2903.05 5027.37Z" fill="white"/>
</svg>